<svg width="69" height="60" viewBox="0 0 69 60" fill="none" xmlns="http://www.w3.org/2000/svg">
<path d="M39.8764 29.754L39.8764 0.973175L68.4441 0.973177L68.4441 8.43488C68.4441 20.0893 67.5913 28.7591 65.8858 34.4442C64.0381 40.2715 59.2768 48.5149 51.602 59.1745L39.45 52.3523C45.8458 41.4085 49.5411 33.8757 50.536 29.754L39.8764 29.754ZM1.07558 29.754L1.07558 0.973171L29.6432 0.973174L29.6432 8.43488C29.6432 20.0893 28.7905 28.7591 27.0849 34.4442C25.2373 40.2715 20.476 48.5149 12.8011 59.1745L0.649191 52.3523C7.04493 41.4085 10.7403 33.8757 11.7351 29.754L1.07558 29.754Z" fill="#EBE2FF"/>
</svg>
